<svg width="11" height="20" viewBox="0 0 11 20" fill="none" xmlns="http://www.w3.org/2000/svg">
<path fill-rule="evenodd" clip-rule="evenodd" d="M10.7797 0.220341C10.71 0.150496 10.6272 0.0950816 10.5361 0.057272C10.445 0.0194623 10.3473 0 10.2487 0C10.15 0 10.0523 0.0194623 9.96121 0.057272C9.87009 0.0950816 9.78733 0.150496 9.71766 0.220341L0.717658 9.22034C0.647813 9.29001 0.5924 9.37277 0.554589 9.46389C0.51678 9.55501 0.497317 9.65269 0.497317 9.75134C0.497317 9.84999 0.51678 9.94767 0.554589 10.0388C0.5924 10.1299 0.647813 10.2127 0.717658 10.2823L9.71766 19.2823C9.85849 19.4232 10.0495 19.5023 10.2487 19.5023C10.4478 19.5023 10.6388 19.4232 10.7797 19.2823C10.9205 19.1415 10.9996 18.9505 10.9996 18.7513C10.9996 18.5522 10.9205 18.3612 10.7797 18.2203L2.30916 9.75134L10.7797 1.28234C10.8495 1.21267 10.9049 1.12991 10.9427 1.03879C10.9805 0.947674 11 0.849992 11 0.751341C11 0.65269 10.9805 0.555008 10.9427 0.46389C10.9049 0.372773 10.8495 0.290009 10.7797 0.220341Z" fill="#353535"/>
</svg>
