<svg width="108" height="20" viewBox="0 0 108 20" fill="none" xmlns="http://www.w3.org/2000/svg">
<path d="M10 0L13.08 6.28L20 7.28L15 12.16L16.2 19.04L10 15.8L3.8 19.04L5 12.16L0 7.28L6.92 6.28L10 0Z" fill="#CF103C"/>
<path d="M32 0L35.08 6.28L42 7.28L37 12.16L38.2 19.04L32 15.8L25.8 19.04L27 12.16L22 7.28L28.92 6.28L32 0Z" fill="#CF103C"/>
<path d="M54 0L57.08 6.28L64 7.28L59 12.16L60.2 19.04L54 15.8L47.8 19.04L49 12.16L44 7.28L50.92 6.28L54 0Z" fill="#CF103C"/>
<path d="M76 0L79.08 6.28L86 7.28L81 12.16L82.2 19.04L76 15.8L69.8 19.04L71 12.16L66 7.28L72.92 6.28L76 0Z" fill="#CF103C"/>
<path d="M108 7.28L101.08 6.28L98 0L94.92 6.28L88 7.28L93 12.16L91.8 19.04L98 15.8L104.2 19.04L103 12.16L108 7.28ZM98.68 14.48L98 14.12L97.32 14.48L93.8 16.32L94.48 12.4L94.6 11.64L94.04 11.08L91.2 8.32L95.12 7.76L95.88 7.64L96.24 6.92L98 3.36L99.76 6.92L100.12 7.64L100.88 7.76L104.8 8.32L101.96 11.08L101.4 11.64L101.52 12.4L102.2 16.32L98.68 14.48Z" fill="#CF103C"/>
<path d="M98 0V15.8L91.8 19.04L93 12.16L88 7.28L94.92 6.28L98 0Z" fill="#CF103C"/>
</svg>
